<mxfile host="app.diagrams.net" agent="Mozilla/5.0 (Windows NT 10.0; Win64; x64) AppleWebKit/537.36 (KHTML, like Gecko) Chrome/98.0.4758.139 Safari/537.36" version="24.8.8">
  <diagram name="第 1 页" id="4lezpPqJ403xujPUZDA0">
    <mxGraphModel dx="586" dy="411" grid="1" gridSize="1" guides="1" tooltips="1" connect="1" arrows="1" fold="1" page="1" pageScale="1" pageWidth="1169" pageHeight="827" math="0" shadow="0">
      <root>
        <mxCell id="0" />
        <mxCell id="1" parent="0" />
        <mxCell id="HMoE_AIVwohIHGqLsTAF-2" value="" style="endArrow=classic;html=1;rounded=1;" edge="1" parent="1">
          <mxGeometry width="50" height="50" relative="1" as="geometry">
            <mxPoint x="106" y="242" as="sourcePoint" />
            <mxPoint x="151" y="241.93" as="targetPoint" />
          </mxGeometry>
        </mxCell>
        <mxCell id="HMoE_AIVwohIHGqLsTAF-7" value="比例" style="rounded=1;whiteSpace=wrap;html=1;shadow=0;glass=0;" vertex="1" parent="1">
          <mxGeometry x="290" y="169" width="100" height="33" as="geometry" />
        </mxCell>
        <mxCell id="HMoE_AIVwohIHGqLsTAF-29" value="" style="verticalLabelPosition=bottom;verticalAlign=top;html=1;shape=mxgraph.flowchart.or;rounded=1;" vertex="1" parent="1">
          <mxGeometry x="151" y="213.5" width="60" height="57" as="geometry" />
        </mxCell>
        <mxCell id="HMoE_AIVwohIHGqLsTAF-30" value="积分" style="rounded=1;whiteSpace=wrap;html=1;" vertex="1" parent="1">
          <mxGeometry x="290" y="226" width="100" height="33" as="geometry" />
        </mxCell>
        <mxCell id="HMoE_AIVwohIHGqLsTAF-31" value="微分" style="rounded=1;whiteSpace=wrap;html=1;" vertex="1" parent="1">
          <mxGeometry x="290" y="282" width="100" height="33" as="geometry" />
        </mxCell>
        <mxCell id="HMoE_AIVwohIHGqLsTAF-33" value="" style="verticalLabelPosition=bottom;verticalAlign=top;html=1;shape=mxgraph.flowchart.or;rounded=1;" vertex="1" parent="1">
          <mxGeometry x="425" y="213.5" width="60" height="57" as="geometry" />
        </mxCell>
        <mxCell id="HMoE_AIVwohIHGqLsTAF-40" value="&lt;font style=&quot;font-size: 24px;&quot;&gt;+&lt;/font&gt;" style="text;strokeColor=none;align=center;fillColor=none;html=1;verticalAlign=middle;whiteSpace=wrap;rounded=0;" vertex="1" parent="1">
          <mxGeometry x="131" y="215" width="16" height="30" as="geometry" />
        </mxCell>
        <mxCell id="HMoE_AIVwohIHGqLsTAF-41" value="&lt;span style=&quot;font-size: 18px; white-space: nowrap; background-color: rgb(255, 255, 255);&quot;&gt;r(t)&lt;/span&gt;" style="text;strokeColor=none;align=center;fillColor=none;html=1;verticalAlign=middle;whiteSpace=wrap;rounded=0;" vertex="1" parent="1">
          <mxGeometry x="106" y="213.5" width="19" height="30" as="geometry" />
        </mxCell>
        <mxCell id="HMoE_AIVwohIHGqLsTAF-50" value="" style="endArrow=classic;html=1;rounded=1;strokeColor=default;align=center;verticalAlign=middle;fontFamily=Helvetica;fontSize=11;fontColor=default;labelBackgroundColor=default;exitX=1;exitY=0.513;exitDx=0;exitDy=0;exitPerimeter=0;targetPerimeterSpacing=0;" edge="1" parent="1" source="HMoE_AIVwohIHGqLsTAF-29" target="HMoE_AIVwohIHGqLsTAF-30">
          <mxGeometry width="50" height="50" relative="1" as="geometry">
            <mxPoint x="247" y="278" as="sourcePoint" />
            <mxPoint x="297" y="228" as="targetPoint" />
          </mxGeometry>
        </mxCell>
        <mxCell id="HMoE_AIVwohIHGqLsTAF-51" value="" style="endArrow=classic;html=1;rounded=1;strokeColor=default;align=center;verticalAlign=middle;fontFamily=Helvetica;fontSize=11;fontColor=default;labelBackgroundColor=default;" edge="1" parent="1">
          <mxGeometry width="50" height="50" relative="1" as="geometry">
            <mxPoint x="263" y="243" as="sourcePoint" />
            <mxPoint x="290" y="186" as="targetPoint" />
            <Array as="points">
              <mxPoint x="263" y="187" />
            </Array>
          </mxGeometry>
        </mxCell>
        <mxCell id="HMoE_AIVwohIHGqLsTAF-52" value="" style="endArrow=classic;html=1;rounded=1;strokeColor=default;align=center;verticalAlign=middle;fontFamily=Helvetica;fontSize=11;fontColor=default;labelBackgroundColor=default;" edge="1" parent="1">
          <mxGeometry width="50" height="50" relative="1" as="geometry">
            <mxPoint x="263" y="242" as="sourcePoint" />
            <mxPoint x="290" y="299" as="targetPoint" />
            <Array as="points">
              <mxPoint x="263" y="298" />
            </Array>
          </mxGeometry>
        </mxCell>
        <mxCell id="HMoE_AIVwohIHGqLsTAF-64" value="" style="endArrow=none;html=1;rounded=1;strokeColor=default;align=center;verticalAlign=middle;fontFamily=Helvetica;fontSize=11;fontColor=default;labelBackgroundColor=default;entryX=0.423;entryY=1.002;entryDx=0;entryDy=0;entryPerimeter=0;edgeStyle=orthogonalEdgeStyle;endFill=0;" edge="1" parent="1">
          <mxGeometry width="50" height="50" relative="1" as="geometry">
            <mxPoint x="179" y="336" as="sourcePoint" />
            <mxPoint x="629.0369999999999" y="243.56" as="targetPoint" />
          </mxGeometry>
        </mxCell>
        <mxCell id="HMoE_AIVwohIHGqLsTAF-66" value="&lt;font style=&quot;font-size: 24px;&quot;&gt;-&lt;/font&gt;" style="text;strokeColor=none;align=center;fillColor=none;html=1;verticalAlign=middle;whiteSpace=wrap;rounded=0;" vertex="1" parent="1">
          <mxGeometry x="158" y="265" width="16" height="30" as="geometry" />
        </mxCell>
        <mxCell id="HMoE_AIVwohIHGqLsTAF-72" value="&lt;span style=&quot;font-size: 18px; white-space: nowrap; background-color: rgb(255, 255, 255);&quot;&gt;e(t)&lt;/span&gt;" style="text;strokeColor=none;align=center;fillColor=none;html=1;verticalAlign=middle;whiteSpace=wrap;rounded=0;" vertex="1" parent="1">
          <mxGeometry x="226" y="213.5" width="19" height="30" as="geometry" />
        </mxCell>
        <mxCell id="HMoE_AIVwohIHGqLsTAF-73" value="" style="endArrow=classic;html=1;rounded=1;strokeColor=default;align=center;verticalAlign=middle;fontFamily=Helvetica;fontSize=11;fontColor=default;labelBackgroundColor=default;exitX=1;exitY=0.513;exitDx=0;exitDy=0;exitPerimeter=0;targetPerimeterSpacing=0;" edge="1" parent="1">
          <mxGeometry width="50" height="50" relative="1" as="geometry">
            <mxPoint x="485" y="243" as="sourcePoint" />
            <mxPoint x="531" y="243" as="targetPoint" />
          </mxGeometry>
        </mxCell>
        <mxCell id="HMoE_AIVwohIHGqLsTAF-74" value="被控对象" style="rounded=1;whiteSpace=wrap;html=1;shadow=0;glass=0;" vertex="1" parent="1">
          <mxGeometry x="531" y="227" width="70" height="33" as="geometry" />
        </mxCell>
        <mxCell id="HMoE_AIVwohIHGqLsTAF-75" value="&lt;span style=&quot;font-size: 18px; white-space: nowrap; background-color: rgb(255, 255, 255);&quot;&gt;u(t)&lt;/span&gt;" style="text;strokeColor=none;align=center;fillColor=none;html=1;verticalAlign=middle;whiteSpace=wrap;rounded=0;" vertex="1" parent="1">
          <mxGeometry x="495" y="213.5" width="19" height="30" as="geometry" />
        </mxCell>
        <mxCell id="HMoE_AIVwohIHGqLsTAF-76" value="" style="endArrow=classic;html=1;rounded=1;strokeColor=default;align=center;verticalAlign=middle;fontFamily=Helvetica;fontSize=11;fontColor=default;labelBackgroundColor=default;exitX=1;exitY=0.513;exitDx=0;exitDy=0;exitPerimeter=0;targetPerimeterSpacing=0;" edge="1" parent="1">
          <mxGeometry width="50" height="50" relative="1" as="geometry">
            <mxPoint x="601" y="243" as="sourcePoint" />
            <mxPoint x="657" y="243" as="targetPoint" />
          </mxGeometry>
        </mxCell>
        <mxCell id="HMoE_AIVwohIHGqLsTAF-77" value="&lt;span style=&quot;font-size: 18px; white-space: nowrap; background-color: rgb(255, 255, 255);&quot;&gt;y(t)&lt;/span&gt;" style="text;strokeColor=none;align=center;fillColor=none;html=1;verticalAlign=middle;whiteSpace=wrap;rounded=0;" vertex="1" parent="1">
          <mxGeometry x="612" y="213.5" width="19" height="30" as="geometry" />
        </mxCell>
        <mxCell id="HMoE_AIVwohIHGqLsTAF-79" value="" style="endArrow=classic;html=1;rounded=0;entryX=0.467;entryY=1.009;entryDx=0;entryDy=0;entryPerimeter=0;" edge="1" parent="1" target="HMoE_AIVwohIHGqLsTAF-29">
          <mxGeometry width="50" height="50" relative="1" as="geometry">
            <mxPoint x="189" y="336" as="sourcePoint" />
            <mxPoint x="290" y="278" as="targetPoint" />
            <Array as="points">
              <mxPoint x="179" y="336" />
            </Array>
          </mxGeometry>
        </mxCell>
        <mxCell id="HMoE_AIVwohIHGqLsTAF-57" value="" style="endArrow=classic;html=1;rounded=1;strokeColor=default;align=center;verticalAlign=middle;fontFamily=Helvetica;fontSize=11;fontColor=default;labelBackgroundColor=default;targetPerimeterSpacing=0;entryX=1.005;entryY=0.424;entryDx=0;entryDy=0;entryPerimeter=0;" edge="1" parent="1" target="HMoE_AIVwohIHGqLsTAF-30">
          <mxGeometry width="50" height="50" relative="1" as="geometry">
            <mxPoint x="425" y="240" as="sourcePoint" />
            <mxPoint x="391" y="240" as="targetPoint" />
          </mxGeometry>
        </mxCell>
        <mxCell id="HMoE_AIVwohIHGqLsTAF-58" value="" style="endArrow=classic;html=1;rounded=1;strokeColor=default;align=center;verticalAlign=middle;fontFamily=Helvetica;fontSize=11;fontColor=default;labelBackgroundColor=default;exitX=0.48;exitY=0.006;exitDx=0;exitDy=0;exitPerimeter=0;" edge="1" parent="1" source="HMoE_AIVwohIHGqLsTAF-33">
          <mxGeometry width="50" height="50" relative="1" as="geometry">
            <mxPoint x="417" y="240" as="sourcePoint" />
            <mxPoint x="390" y="183" as="targetPoint" />
            <Array as="points">
              <mxPoint x="454" y="183" />
            </Array>
          </mxGeometry>
        </mxCell>
        <mxCell id="HMoE_AIVwohIHGqLsTAF-81" value="" style="endArrow=classic;html=1;rounded=1;strokeColor=default;align=center;verticalAlign=middle;fontFamily=Helvetica;fontSize=11;fontColor=default;labelBackgroundColor=default;exitX=0.48;exitY=0.006;exitDx=0;exitDy=0;exitPerimeter=0;" edge="1" parent="1">
          <mxGeometry width="50" height="50" relative="1" as="geometry">
            <mxPoint x="454" y="270.5" as="sourcePoint" />
            <mxPoint x="390" y="301.5" as="targetPoint" />
            <Array as="points">
              <mxPoint x="454" y="301.5" />
            </Array>
          </mxGeometry>
        </mxCell>
        <mxCell id="HMoE_AIVwohIHGqLsTAF-82" value="&lt;font style=&quot;font-size: 24px;&quot;&gt;+&lt;/font&gt;" style="text;strokeColor=none;align=center;fillColor=none;html=1;verticalAlign=middle;whiteSpace=wrap;rounded=0;" vertex="1" parent="1">
          <mxGeometry x="446" y="209" width="16" height="30" as="geometry" />
        </mxCell>
        <mxCell id="HMoE_AIVwohIHGqLsTAF-84" value="&lt;font style=&quot;font-size: 24px;&quot;&gt;+&lt;/font&gt;" style="text;strokeColor=none;align=center;fillColor=none;html=1;verticalAlign=middle;whiteSpace=wrap;rounded=0;" vertex="1" parent="1">
          <mxGeometry x="446" y="244" width="16" height="30" as="geometry" />
        </mxCell>
        <mxCell id="HMoE_AIVwohIHGqLsTAF-85" value="&lt;font style=&quot;font-size: 24px;&quot;&gt;+&lt;/font&gt;" style="text;strokeColor=none;align=center;fillColor=none;html=1;verticalAlign=middle;whiteSpace=wrap;rounded=0;" vertex="1" parent="1">
          <mxGeometry x="428" y="225" width="16" height="30" as="geometry" />
        </mxCell>
      </root>
    </mxGraphModel>
  </diagram>
</mxfile>
